<svg width="1480" height="1480" viewBox="0 0 1480 1480" fill="none" xmlns="http://www.w3.org/2000/svg">
<path d="M1046.78 740.104L1263.26 216.741L740 740L1046.78 740.104Z" fill="#FFA3A3"/>
<path d="M739.897 433.219L1263.26 216.741L740 740L739.897 433.219Z" fill="black"/>
<path d="M739.896 1046.78L1263.26 1263.26L740 740L739.896 1046.78Z" fill="#FFA3A3"/>
<path d="M1046.78 739.896L1263.26 1263.26L740 740L1046.78 739.896Z" fill="black"/>
<path d="M433.219 739.896L216.741 1263.26L740 740L433.219 739.896Z" fill="#FFA3A3"/>
<path d="M740.104 1046.78L216.741 1263.26L740 740L740.104 1046.78Z" fill="black"/>
<path d="M740.104 433.219L216.741 216.741L740 740L740.104 433.219Z" fill="#FFA3A3"/>
<path d="M433.219 740.104L216.741 216.741L740 740L433.219 740.104Z" fill="black"/>
<path d="M957 523.146L740 1.89707e-05L740 740L957 523.146Z" fill="#FFA3A3"/>
<path d="M523 523.146L740 -1.89707e-05L740 740L523 523.146Z" fill="black"/>
<path d="M956.854 957L1480 740L740 740L956.854 957Z" fill="#FFA3A3"/>
<path d="M956.854 523L1480 740L740 740L956.854 523Z" fill="black"/>
<path d="M523 956.854L740 1480V740L523 956.854Z" fill="#FFA3A3"/>
<path d="M957 956.854L740 1480V740L957 956.854Z" fill="black"/>
<path d="M523.146 523L2.84561e-05 740L740 740L523.146 523Z" fill="#FFA3A3"/>
<path d="M523.146 957L-2.84561e-05 740L740 740L523.146 957Z" fill="black"/>
<path d="M867.223 740.042L956.998 523.002L740 739.999L867.223 740.042Z" fill="#FFA3A3"/>
<path d="M739.957 612.775L956.998 523L740 739.998L739.957 612.775Z" fill="black"/>
<path d="M739.957 867.223L956.998 956.998L740 740L739.957 867.223Z" fill="#FFA3A3"/>
<path d="M867.223 739.956L956.998 956.996L740 739.999L867.223 739.956Z" fill="black"/>
<path d="M612.777 739.956L523.002 956.996L740 739.999L612.777 739.956Z" fill="#FFA3A3"/>
<path d="M740.043 867.223L523.002 956.998L740 740L740.043 867.223Z" fill="black"/>
<path d="M740.043 612.775L523.002 523L740 739.998L740.043 612.775Z" fill="#FFA3A3"/>
<path d="M612.777 740.042L523.002 523.002L740 739.999L612.777 740.042Z" fill="black"/>
<path d="M777.242 702.784L739.999 613L739.999 740.002L777.242 702.784Z" fill="#FFA3A3"/>
<path d="M702.757 702.784L740 613L740 740.002L702.757 702.784Z" fill="black"/>
<path d="M777.217 777.244L867.001 740.002L740 740.002L777.217 777.244Z" fill="#FFA3A3"/>
<path d="M777.217 702.76L867.001 740.002L739.999 740.002L777.217 702.76Z" fill="black"/>
<path d="M702.757 777.218L740 867.002V740L702.757 777.218Z" fill="#FFA3A3"/>
<path d="M777.243 777.22L740 867.004V740.002L777.243 777.22Z" fill="black"/>
<path d="M702.782 702.76L612.998 740.002L740 740.002L702.782 702.76Z" fill="#FFA3A3"/>
<path d="M702.782 777.244L612.998 740.002L740 740.002L702.782 777.244Z" fill="black"/>
<path d="M761.836 740.01L777.245 702.758L740 740.003L761.836 740.01Z" fill="#FFA3A3"/>
<path d="M739.992 718.166L777.245 702.758L740 740.003L739.992 718.166Z" fill="black"/>
<path d="M739.992 761.839L777.245 777.248L740 740.003L739.992 761.839Z" fill="#FFA3A3"/>
<path d="M761.836 739.996L777.245 777.248L740 740.003L761.836 739.996Z" fill="black"/>
<path d="M718.164 739.996L702.755 777.248L740 740.003L718.164 739.996Z" fill="#FFA3A3"/>
<path d="M740.008 761.839L702.755 777.248L740 740.003L740.008 761.839Z" fill="black"/>
<path d="M740.008 718.166L702.755 702.758L740 740.003L740.008 718.166Z" fill="#FFA3A3"/>
<path d="M718.163 740.01L702.754 702.758L739.999 740.003L718.163 740.01Z" fill="black"/>
</svg>
